<mxfile host="app.diagrams.net" modified="2024-01-28T13:43:16.780Z" agent="Mozilla/5.0 (Macintosh; Intel Mac OS X 10_15_7) AppleWebKit/537.36 (KHTML, like Gecko) Chrome/121.0.0.0 Safari/537.36" version="22.1.20" etag="km_NLS_Uf879el9uQLTG" type="github">
  <diagram name="第 1 页" id="PLb0T6RMwWNItlrigL4l">
    <mxGraphModel>
      <root>
        <mxCell id="0" />
        <mxCell id="1" parent="0" />
      </root>
    </mxGraphModel>
  </diagram>
</mxfile>
